<svg width="32" height="32" viewBox="0 0 32 32" fill="none" xmlns="http://www.w3.org/2000/svg">
    <rect width="32" height="32" rx="16" fill="#E9EBEE"/>
    <path d="M18.5333 18.6664V22.0569C18.5333 22.3121 18.483 22.5648 18.3853 22.8005C18.2877 23.0363 18.1445 23.2505 17.9641 23.4309C17.7836 23.6113 17.5693 23.7544 17.3335 23.852C17.0977 23.9496 16.8451 23.9997 16.5898 23.9997H11.9435C11.6883 23.9997 11.4356 23.9496 11.1998 23.852C10.964 23.7544 10.7497 23.6113 10.5693 23.4309C10.3888 23.2505 10.2456 23.0363 10.148 22.8005C10.0503 22.5648 10 22.3121 10 22.0569V11.0099C10 10.4944 10.2048 10.0001 10.5692 9.63563C10.9337 9.27116 11.428 9.06641 11.9435 9.06641H14.2666" stroke="#313233" stroke-width="1.4" stroke-linecap="round" stroke-linejoin="round"/>
    <path d="M10.2251 20.8008H18.0251" stroke="#313233" stroke-width="1.4" stroke-linecap="round" stroke-linejoin="round"/>
    <path d="M21.9583 11.1992H17.6917C17.1026 11.1992 16.625 11.6768 16.625 12.2659V15.4659C16.625 16.055 17.1026 16.5325 17.6917 16.5325H21.9583C22.5474 16.5325 23.025 16.055 23.025 15.4659V12.2659C23.025 11.6768 22.5474 11.1992 21.9583 11.1992Z" stroke="#313233" stroke-width="1.4" stroke-linecap="round" stroke-linejoin="round"/>
    <path d="M19.825 8C19.2592 8 18.7166 8.22476 18.3165 8.62484C17.9164 9.02491 17.6917 9.56753 17.6917 10.1333V11.2H21.9583V10.1333C21.9583 9.56753 21.7335 9.02491 21.3334 8.62484C20.9334 8.22476 20.3907 8 19.825 8Z" stroke="#313233" stroke-width="1.4" stroke-linecap="round" stroke-linejoin="round"/>
    <path d="M19.825 14.1544C19.6777 14.1544 19.5583 14.035 19.5583 13.8878C19.5583 13.7405 19.6777 13.6211 19.825 13.6211" stroke="#5C5E60" stroke-width="1.4"/>
    <path d="M19.825 14.1544C19.9722 14.1544 20.0916 14.035 20.0916 13.8878C20.0916 13.7405 19.9722 13.6211 19.825 13.6211" stroke="#5C5E60" stroke-width="1.4"/>
</svg>
